<svg width="0" height="0" class="hidden">
    <symbol xmlns="http://www.w3.org/2000/svg" viewBox="0 0 20 20" id="addIcon">
        <title>addIcon</title>
        <path d="M14.75 0H3.5A3.5 3.5 0 000 3.5v11.25a3.5 3.5 0 003.5 3.5H10a5.19 5.19 0 01-.55-1.5H3.5a2 2 0 01-2-2V3.5a1.86 1.86 0 01.06-.5h15.13a1.86 1.86 0 01.06.48v5.93a5.19 5.19 0 011.5.55V3.5a3.5 3.5 0 00-3.5-3.5zm1.38 16.19h.06v-.06z"></path>
        <path d="M5.38 6.15H3.85v1.54h1.53V6.15zm9.27 0H6.89v1.54h7.76V6.15zM5.38 9.23H3.85v1.54h1.53V9.23zm9.27 0H6.89v1.54h4.49a6.06 6.06 0 013.27-1.47v-.07zm-9.27 3.08H3.85v1.54h1.53v-1.54zm4.72 0H6.89v1.54h2.57a5.23 5.23 0 01.64-1.54zm4.55 0a.17.17 0 000 .07v1.47-1.54z"></path>
        <path d="M18.09 11.93a4.14 4.14 0 00-1.42-.72 4 4 0 00-1.26-.21 4.34 4.34 0 00-3.28 1.47 4.26 4.26 0 00-.86 1.45 4.2 4.2 0 00-.27 1.49 4 4 0 00.19 1.26 4.14 4.14 0 00.72 1.42 4.39 4.39 0 106.16-6.16zm.17 4.21h-2.12v2.12a.36.36 0 01-.36.35H15a.36.36 0 01-.36-.35v-2.12h-2.09a.36.36 0 01-.35-.36V15a.36.36 0 01.35-.36h2.12v-2.15a.36.36 0 01.33-.29h.75a.36.36 0 01.36.35v2.12h2.12a.36.36 0 01.35.36v.75a.36.36 0 01-.32.36z"></path>
    </symbol>
</svg>