<svg width="0" height="0" class="hidden">
    <symbol xmlns="http://www.w3.org/2000/svg" viewBox="0 0 20 20" id="deleteIcon">
        <title>deleteIcon</title>
        <path d="M4.15 5.88v9.36a3.06 3.06 0 003.07 3.07h5.48a3.06 3.06 0 003.07-3.07V5.88zm9.12 8.05l-1.16 1.16L10 12.94l-2.19 2.15-1.16-1.16 2.15-2.15-2.15-2.15 1.16-1.16L10 10.62l2.15-2.15 1.16 1.16-2.15 2.15zM12.49 2.5v-.45a.38.38 0 00-.38-.38H7.88a.38.38 0 00-.39.38v.45H3.74a.5.5 0 00-.5.5v1.13h13.44V3a.5.5 0 00-.5-.5z"></path>
    </symbol>
</svg>